# xmcd CD database file
#
# Track frame offsets:
#	150
#	12930
#	23738
#	34166
#	46379
#	59158
#	74659
#	86001
#	96230
#	109584
#	122395
#	137058
#	146280
#	156786
#	169615
#	179650
#	190407
#	199976
#
# Disc length: 2906 seconds
#
# Revision: 0
# Processed by: cddbd v1.5.1PL0 Copyright (c) Steve Scherf et al.
# Submitted via: CDex 1.51
#
DISCID=030b5812
DTITLE=Albert Collins - The Complete Imperial Recordings (disk 2)
DYEAR=1900
DGENRE=Blues
TTITLE0=Baby, What You Want Me to Do/Rock Me Baby 
TTITLE1=Lip Service
TTITLE2=The Things That I Used to Do
TTITLE3=Back-Yard Back-Talk
TTITLE4=Tongue Lashing
TTITLE5=And Then It Started Raining
TTITLE6=Soul Food
TTITLE7=Jam It Up
TTITLE8=Do What You Want to Do
TTITLE9=Black Bottom Bayou
TTITLE10=Junkey Monkey
TTITLE11=69 Underpass Roadside Inn
TTITLE12=I Need You So
TTITLE13=Bitsey
TTITLE14=Cool 'N Collards
TTITLE15=Blend Down and Jam
TTITLE16=Sweet 'N' Sour
TTITLE17=Swamp Sauce
EXTD=
EXTT0=
EXTT1=
EXTT2=
EXTT3=
EXTT4=
EXTT5=
EXTT6=
EXTT7=
EXTT8=
EXTT9=
EXTT10=
EXTT11=
EXTT12=
EXTT13=
EXTT14=
EXTT15=
EXTT16=
EXTT17=
PLAYORDER=
